/* XPM */
static char *c2140a1fc65c473bb75c19a1c4d0122a[] = {
/* columns rows colors chars-per-pixel */
"32 32 256 2 ",
"   c #031543",
".  c #071A4B",
"X  c #061653",
"o  c #091654",
"O  c #041C53",
"+  c #0C175A",
"@  c #051B5D",
"#  c #0B1A5B",
"$  c #02175C",
"%  c #101D5B",
"&  c #08245A",
"*  c #152A5D",
"=  c #031B65",
"-  c #0A1C64",
";  c #031C6B",
":  c #0B1C6D",
">  c #051765",
",  c #121E66",
"<  c #091671",
"1  c #031D73",
"2  c #041C7B",
"3  c #0A1F73",
"4  c #0A2463",
"5  c #0C2B62",
"6  c #06236C",
"7  c #0B236D",
"8  c #0C2C6C",
"9  c #062664",
"0  c #122C62",
"q  c #142C6C",
"w  c #142864",
"e  c #093266",
"r  c #0B356B",
"t  c #063469",
"y  c #12316C",
"u  c #1B3669",
"i  c #062472",
"p  c #0B2375",
"a  c #0B2B72",
"s  c #04247C",
"d  c #0B267B",
"f  c #0B2A7B",
"g  c #06297D",
"h  c #132B74",
"j  c #122F7F",
"k  c #192B76",
"l  c #0E3373",
"z  c #0F3A75",
"x  c #0D357A",
"c  c #0F3F78",
"v  c #133474",
"b  c #163F73",
"n  c #13347C",
"m  c #1A3C7B",
"M  c #183977",
"N  c #233B69",
"B  c #22357B",
"V  c #0E4073",
"C  c #16437C",
"Z  c #1A477E",
"A  c #1A467B",
"S  c #294072",
"D  c #041D85",
"F  c #081C81",
"G  c #042383",
"H  c #0A2483",
"J  c #0B2C83",
"K  c #05258A",
"L  c #062A8C",
"P  c #0A2C8B",
"I  c #0C2289",
"U  c #132C8C",
"Y  c #132A83",
"T  c #0D3384",
"R  c #0F348A",
"E  c #14348B",
"W  c #153884",
"Q  c #062C93",
"!  c #092D9C",
"~  c #092C97",
"^  c #112F97",
"/  c #0C319C",
"(  c #0D3294",
")  c #193691",
"_  c #163B93",
"`  c #13359D",
"'  c #143B9C",
"]  c #193D9C",
"[  c #133295",
"{  c #253F9A",
"}  c #0A2FA0",
"|  c #072FA4",
" . c #0A33A3",
".. c #0B35AC",
"X. c #0C3AAC",
"o. c #0A37A6",
"O. c #1335A3",
"+. c #133BA4",
"@. c #123BAA",
"#. c #1237A8",
"$. c #0B3BB5",
"%. c #0736B1",
"&. c #113FB2",
"*. c #194483",
"=. c #1C4A85",
"-. c #14458B",
";. c #1A4289",
":. c #1C4B8B",
">. c #174583",
",. c #1F558D",
"<. c #1E4E92",
"1. c #154499",
"2. c #1A4895",
"3. c #1F5A91",
"4. c #204B8F",
"5. c #22548B",
"6. c #214B90",
"7. c #235294",
"8. c #255B94",
"9. c #2A5C9E",
"0. c #275999",
"q. c #2A6097",
"w. c #2B639D",
"e. c #27619E",
"r. c #30659E",
"t. c #1241A3",
"y. c #1344AC",
"u. c #1948A6",
"i. c #1F51A6",
"p. c #0E45BB",
"a. c #0F4CBF",
"s. c #144BBD",
"d. c #1647B9",
"f. c #1452BC",
"g. c #1C54B4",
"h. c #255DAD",
"j. c #2D64A4",
"k. c #2C69AA",
"l. c #306CA9",
"z. c #2F70AF",
"x. c #3069B3",
"c. c #3772AD",
"v. c #0C4DC3",
"b. c #104FC1",
"n. c #0C55C9",
"m. c #0C55C5",
"M. c #1254C4",
"N. c #1559C3",
"B. c #195AC4",
"V. c #125AC8",
"C. c #255ECC",
"Z. c #0E62CE",
"A. c #1F65C4",
"S. c #0E68D2",
"D. c #126DD3",
"F. c #116CD9",
"G. c #1274D5",
"H. c #137AD7",
"J. c #1C7AD3",
"K. c #1376D3",
"L. c #286BCE",
"P. c #2466CC",
"I. c #2277DA",
"U. c #2876D7",
"Y. c #296BD2",
"T. c #1582DA",
"R. c #1A87D9",
"E. c #1B8BDA",
"W. c #1788DB",
"Q. c #2D82DD",
"!. c #2A8ADE",
"~. c #2B91D6",
"^. c #33A8DB",
"/. c #1689EC",
"(. c #0D90ED",
"). c #0D86E9",
"_. c #2A8CE2",
"`. c #2B9BE6",
"'. c #2C90E0",
"]. c #2DA9EA",
"[. c #33ABEB",
"{. c #32AAE4",
"}. c #2FB5EF",
"|. c #36BBE6",
" X c #34B3EC",
".X c #3CBDEE",
"XX c #38B8E9",
"oX c #33B8F3",
"OX c #4C88DB",
"+X c #4E92DF",
"@X c #579AE3",
"#X c #45A5EF",
"$X c #59A6E7",
"%X c #5BAAEB",
"&X c #57A7EA",
"*X c #44BDED",
"=X c #4EBCEE",
"-X c #49B4EF",
";X c #5DBFE9",
":X c #5DBBE7",
">X c #46ACF2",
",X c #4CB5F0",
"<X c #4DBCF3",
"1X c #43B8F0",
"2X c #55B4F1",
"3X c #63ADEB",
"4X c #61BBEF",
"5X c #67B6EC",
"6X c #73BFEF",
"7X c #63B7F2",
"8X c #39C3EE",
"9X c #3ACAEC",
"0X c #37C1F2",
"qX c #3BD1F1",
"wX c #42CAEF",
"eX c #58C4EC",
"rX c #4CC7F1",
"tX c #52C4F1",
"yX c #66C2EF",
"uX c #75C1EF",
"iX c #69C3F1",
"pX c #6CCEF1",
"aX c #76CCF2",
"sX c #78CAF1",
"dX c #6DD1F3",
"fX c #73D4F3",
"gX c #75DFF5",
"hX c #7CE1F5",
"jX c #83D4F3",
"kX c #8ED4F5",
"lX c #86DEF4",
"zX c #8FDCF5",
"xX c #9DDEF6",
"cX c #95D7F5",
"vX c #8CCBF4",
"bX c #A5DEF0",
"nX c #85E2F5",
"mX c #89E8F6",
"MX c #93E5F5",
"NX c #9DE4F5",
"BX c #94EAF6",
"VX c #9BEEF6",
"CX c #98F0F8",
"ZX c #A3E3F4",
"AX c #A9E4F3",
"SX c #A5EDF5",
"DX c #AAEAF5",
"FX c #B4EAF6",
"GX c #BBEDF6",
"HX c #B8E7F2",
"JX c #A3F2F7",
"KX c #ABF5F8",
"LX c #B4F2F6",
"PX c #BAF3F6",
"IX c #C2F1F7",
"UX c None",
/* pixels */
"UXUXUXUXUXUXUXUXUXUXUXUXj.<.:.C ;.>.5.9.UXUXUXUXUXUXUXUXUXUXUXUX",
"UXUXUXUXUXUXUXUXUXk.i.T g = > X + o # % 5 A q.UXUXUXUXUXUXUXUXUX",
"UXUXUXUXUXUXUXUXm 8 g 6 2 < = @ : + # +     & m UXUXUXUXUXUXUXUX",
"UXUXUXUXUXUXh.] j 8 d 6 6 d d h k 7 4 - O X + + h 0.UXUXUXUXUXUX",
"UXUXUXUXUX<.' U f l g g i g ) ) ) U Y d 6 7 : < < p :.UXUXUXUXUX",
"UXUXUXUX7.i ) j = f J P P ( +.u.u.O.O.[ U U U I F ; O =.UXUXUXUX",
"UXUXUX8.T 6 E T s ( ~ | X...d.B.M.s.d.#.#.@.@.^ K < $ 9 8.UXUXUX",
"UXUXl.x 6 8 g G ~ p.a.v.v.S.H.R.R.G.G.Z.M.s.s.d.K 2 ; $ 8 UXUXUX",
"UXUX>.8 l f P o.p.C.U.Q._.[.*XeXtX.X X]._.U.Y.N.| G F D 2 >.UXUX",
"UXw.e e c x L f.L.OX@X3XyXfXnXZXZXmXgXpX4X&X+XP.p./ G 1 ; 9 UXUX",
"UXC O 5 C -.' p.U.@X3X6XjXMXSXPXLXKXCXlXsX5X&XI.n. .L s ; @ :.UX",
"UXt & & x -.t.m.Q.3X6XvXkXMXNXDXSXSXMXzXzXsX4X!.n.| L s ; @ v UX",
"w.r t l x 1.X.Z.`.iXjXcX&X#X,XrXrXwX[.3XNXlXfX`.n...Q s 6 = a l.",
"8.t t V -.u.f.D.{.fXMXZX>XoX8XXX8X9X0X,XDXVXhX}.G.%.Q g i i 5 w.",
",.e r C 1.t.m.K.XXnXJXFX<X.X~.K.K.^.qXtXPXKXmX.XT.v. .P f 4 0 8.",
"3.V Z =.1.y.N.T.=XNXLXGX<X[.G.(.).J.9XtXIXPXZXtXW.m.@.R h 5 * 5.",
",.e l ;.1.y.N.R.;XbXGXGX=X|.F./.W.J.9XrXIXIXbX;XE.N.#.U M N N 8.",
"3.z l ;.1.+.b.H..XnXDXFX<X8X~.I.I.^.qXtXGXKXBX.XH.d.] W B * u 8.",
"e.c C >.J ~ %.S.[.fXMXAX#X}.8X XXX8XoX=XFXNXhX}.G.p.] W N * N r.",
"z.:.C f g Q ..n.'.iXjXcX%X,X=X1X*X=X,X4XxXlXpX`.S...[ n u * N c.",
"UX>.r a g Q | m.Q.3XuXkXxXAXFXHXGXFXDXxXzXsX4X~.b.+.) v # . b UX",
"UX:.7 i i L ~ v.U.@X5XsXnXJXLXPXIXPXJXmXfX5X$XU.f.u.;.m * . Z UX",
"UXe.5 = 1 s ~ $.C.OX&X7XdXhXMXbXDXCXnXfX4X%X+XL.g.i.;.v y y UXUX",
"UXUXm 1 D s s ! s.C.U._.`.].1X:XeXwX}.`.!.I.P.A.g.i.4.n 8 :.UXUX",
"UXUXj.d = ; 1 K ..$.$.V.D.F.H.E.E.R.G.n.m.V.f.t.P W W W n UXUXUX",
"UXUXUX5.@ @ ; G ~ } } @.#.&.s.f.N.s.X.| ! ( _ T i a a T h.UXUXUX",
"UXUXUXUX*.. > D I s I P P ^ ^ O.+.O.P J J W n W 8 & O <.UXUXUXUX",
"UXUXUXUXUX;.3 ; ; - 7 : 3 p H U U Y i 7 q y y -.8 & =.UXUXUXUXUX",
"UXUXUXUXUXUX7.q o + # . X - 3 3 p k k w w y q T x 5.UXUXUXUXUXUX",
"UXUXUXUXUXUXUXj.m %     . o + , , % B B q q 5 C UXUXUXUXUXUXUXUX",
"UXUXUXUXUXUXUXUXUXq.b & % + o , % , k { 2.6.w.UXUXUXUXUXUXUXUXUX",
"UXUXUXUXUXUXUXUXUXUXUXUX9.7.=.6.=.7.9.x.UXUXUXUXUXUXUXUXUXUXUXUX"
};
