/* XPM */
static char *_b26314fe0d84dc6e6980cd40a97268d[] = {
/* columns rows colors chars-per-pixel */
"80 80 256 2 ",
"   c #02133D",
".  c #021235",
"X  c #021543",
"o  c #03164B",
"O  c #031A4C",
"+  c #08174A",
"@  c #021653",
"#  c #0B1553",
"$  c #031B53",
"%  c #0B155B",
"&  c #031B5B",
"*  c #0A1A5C",
"=  c #081A56",
"-  c #111959",
";  c #042254",
":  c #05245C",
">  c #0A265A",
",  c #172A5A",
"<  c #122854",
"1  c #031C64",
"2  c #0A1B64",
"3  c #041D6B",
"4  c #0B1D6B",
"5  c #081667",
"6  c #131766",
"7  c #031C73",
"8  c #041C7B",
"9  c #091A76",
"0  c #101F75",
"q  c #052264",
"w  c #0A2364",
"e  c #04226C",
"r  c #0B236C",
"t  c #0B2B6C",
"y  c #092B65",
"u  c #132C6B",
"i  c #152867",
"p  c #0C336B",
"a  c #0A3669",
"s  c #193369",
"d  c #042374",
"f  c #0C2374",
"g  c #0B2C73",
"h  c #04237C",
"j  c #0B247B",
"k  c #0B2A7B",
"l  c #062A77",
"z  c #152978",
"x  c #0C3373",
"c  c #0D3A77",
"v  c #163877",
"b  c #243B69",
"n  c #24357A",
"m  c #0B4379",
"M  c #15437A",
"N  c #334676",
"B  c #041C82",
"V  c #051D88",
"C  c #031C97",
"Z  c #042484",
"A  c #0B2B83",
"S  c #03248C",
"D  c #062A8C",
"F  c #0A2B8B",
"G  c #0A2686",
"H  c #122B83",
"J  c #142C8A",
"K  c #0D3488",
"L  c #123383",
"P  c #173988",
"I  c #032594",
"U  c #052A93",
"Y  c #0A2C93",
"T  c #052B9B",
"R  c #0A2D9B",
"E  c #04259A",
"W  c #122C96",
"Q  c #0C3294",
"!  c #0C329C",
"~  c #09349C",
"^  c #13349C",
"/  c #173996",
"(  c #2A3988",
")  c #273990",
"_  c #062CA5",
"`  c #0C33A4",
"'  c #0B34AC",
"]  c #0B38A9",
"[  c #143BA4",
"{  c #123BAB",
"}  c #1637A7",
"|  c #0C3AB3",
" . c #0939B8",
".. c #123DB3",
"X. c #173AB6",
"o. c #0A2EAB",
"O. c #182CA7",
"+. c #0E4585",
"@. c #1B4B8B",
"#. c #174688",
"$. c #18528E",
"%. c #174697",
"&. c #195697",
"*. c #0C4094",
"=. c #224897",
"-. c #22589C",
";. c #284E8B",
":. c #1745A8",
">. c #1B57A7",
",. c #0C43BC",
"<. c #0B44B8",
"1. c #1443B4",
"2. c #1244BB",
"3. c #144BBC",
"4. c #1A48B7",
"5. c #1A56B9",
"6. c #0C49A9",
"7. c #2257A6",
"8. c #224DB2",
"9. c #1E62A6",
"0. c #1F7FA7",
"q. c #2669AB",
"w. c #256AB3",
"e. c #2C75B7",
"r. c #3279B9",
"t. c #1E669A",
"y. c #0D4BC4",
"u. c #0845C4",
"i. c #134CC2",
"p. c #1549C2",
"a. c #0B56CA",
"s. c #1353C4",
"d. c #135DCC",
"f. c #1758C6",
"g. c #135CD2",
"h. c #0757D8",
"j. c #275BCB",
"k. c #1564CC",
"l. c #1967CA",
"z. c #0B67D4",
"x. c #1364D3",
"c. c #166CD4",
"v. c #0A78DB",
"b. c #1573D4",
"n. c #1678D8",
"m. c #136BCE",
"M. c #2666CB",
"N. c #286DD3",
"B. c #2877D9",
"V. c #2E77CA",
"C. c #0F76EC",
"Z. c #2D6DEC",
"A. c #4678D4",
"S. c #023FCB",
"D. c #3A81BF",
"F. c #1587DB",
"G. c #158DDC",
"H. c #3A86C6",
"J. c #2C8ED7",
"K. c #3CAED5",
"L. c #0A89E7",
"P. c #1589E3",
"I. c #0C99E9",
"U. c #1598E6",
"Y. c #0D8EF1",
"T. c #298AE5",
"R. c #2798EA",
"E. c #3198E7",
"W. c #2A9BF2",
"Q. c #2D8DEA",
"!. c #14A7E8",
"~. c #13B0EC",
"^. c #28A9EA",
"/. c #35A9E7",
"(. c #2AB6EC",
"). c #35B8EC",
"_. c #2BA9F1",
"`. c #2DB5F2",
"'. c #34B7F3",
"]. c #31ACF3",
"[. c #438DCB",
"{. c #468BC7",
"}. c #4992CD",
"|. c #4986DA",
" X c #4A96D4",
".X c #539CD5",
"XX c #539ADA",
"oX c #518EDA",
"OX c #58A3DA",
"+X c #42B4D6",
"@X c #4A98E5",
"#X c #569AE3",
"$X c #4F8FE0",
"%X c #4AA7EB",
"&X c #59A8E8",
"*X c #49B7E9",
"=X c #59B5EB",
"-X c #57BAF0",
";X c #63AAE9",
":X c #63B4EC",
">X c #68BAEC",
",X c #66BCF0",
"<X c #75BBEE",
"1X c #62A9DD",
"2X c #38C8EE",
"3X c #3ED3EE",
"4X c #33C3F2",
"5X c #3BCCF2",
"6X c #39C7F3",
"7X c #3CD5F2",
"8X c #2DC1F0",
"9X c #5AC5ED",
"0X c #46D4ED",
"qX c #44D7F3",
"wX c #4ECBF0",
"eX c #68C3ED",
"rX c #76C7ED",
"tX c #69C8F1",
"yX c #76C9F1",
"uX c #6AD5F3",
"iX c #74D3F3",
"pX c #7BDDF4",
"aX c #77D7F3",
"sX c #76D8EF",
"dX c #4EE3F5",
"fX c #7AE2F6",
"gX c #84CBF2",
"hX c #86DAF3",
"jX c #97D9F6",
"kX c #91D1EB",
"lX c #A7DAED",
"zX c #A6DAF7",
"xX c #AEDBF5",
"cX c #8CE4F5",
"vX c #8CEAF6",
"bX c #85E6F6",
"nX c #94EBF6",
"mX c #99E8F6",
"MX c #99F2F7",
"NX c #A3EBF5",
"BX c #AAECF5",
"VX c #A9E4F6",
"CX c #B7EAF5",
"ZX c #ACF3F6",
"AX c #A6F3F8",
"SX c #B3F3F6",
"DX c #BBF3F6",
"FX c #B8F5F8",
"GX c #BFE4EC",
"HX c #C6ECF6",
"JX c #C3F4F6",
"KX c #C9F5F8",
"LX c #D5F7FA",
"PX c #C1E6EE",
"IX c #E1F9FB",
"UX c None",
/* pixels */
"UXUXUXUXUXUXUXUXUXUXUXUXUXUXUXUXUXUXUXUXUXUXUXUXUXUXUXUXUXUXUXUXUXUXOX.X}.[.[.H.H.H.}. X.X1XUXUXUXUXUXUXUXUXUXUXUXUXUXUXUXUXUXUXUXUXUXUXUXUXUXUXUXUXUXUXUXUXUXUX",
"UXUXUXUXUXUXUXUXUXUXUXUXUXUXUXUXUXUXUXUXUXUXUXUXUXUXUXUXUXUX}.H.w.9.%.+.K a a c k f x c #.$.-.e.H.}.UXUXUXUXUXUXUXUXUXUXUXUXUXUXUXUXUXUXUXUXUXUXUXUXUXUXUXUXUXUX",
"UXUXUXUXUXUXUXUXUXUXUXUXUXUXUXUXUXUXUXUXUXUXUXUXUXUXOXH.e.&.+.A d @ @ 5 5 o   @ % % % o +   # + > v &.e.[.UXUXUXUXUXUXUXUXUXUXUXUXUXUXUXUXUXUXUXUXUXUXUXUXUXUXUX",
"UXUXUXUXUXUXUXUXUXUXUXUXUXUXUXUXUXUXUXUXUXUXUXUX Xe.9.*.l d h 8 9 o & 5 5 @ X % 5 % % # + X 6 % #   + ; p &.r..XUXUXUXUXUXUXUXUXUXUXUXUXUXUXUXUXUXUXUXUXUXUXUXUX",
"UXUXUXUXUXUXUXUXUXUXUXUXUXUXUXUXUXUXUXUXUXUX}.q.*.[ ~ D e d 8 8 8 @ 5 8 9 @ o 5 5 2 2 # # o 6 6 6 # +     + > +.q.}.UXUXUXUXUXUXUXUXUXUXUXUXUXUXUXUXUXUXUXUXUXUX",
"UXUXUXUXUXUXUXUXUXUXUXUXUXUXUXUXUXUXUXUX Xq.+.K & q J A q 3 h 8 8 5 @ 5 @ @ o 5 4 6 2 # = o 6 2 6 + + +         ; m e..XUXUXUXUXUXUXUXUXUXUXUXUXUXUXUXUXUXUXUXUX",
"UXUXUXUXUXUXUXUXUXUXUXUXUXUXUXUXUXUXOXr.+.;   q A 1 A k e 3 7 8 8 8 3 * 3 $ $ 2 4 4 4 = & @ = - - O # o X X   X X # w #.D.UXUXUXUXUXUXUXUXUXUXUXUXUXUXUXUXUXUXUX",
"UXUXUXUXUXUXUXUXUXUXUXUXUXUXUXUXUX[.9.: X   X X q k A l 2 1 & 9 B B j 9 & & j 4 4 z 4 * 2 @ 2 - * $ 2 O o X X o - # # # t 9.}.UXUXUXUXUXUXUXUXUXUXUXUXUXUXUXUXUX",
"UXUXUXUXUXUXUXUXUXUXUXUXUXUXUXUXr.:.^ z [ z $ L w j k l e 1 1 3 9 G j H z r J f z H 0 2 0 = 2 2 2 $ $ $ O O @ % - % # % % 4 #.H.UXUXUXUXUXUXUXUXUXUXUXUXUXUXUXUX",
"UXUXUXUXUXUXUXUXUXUXUXUXUXUXOXw.[ X.} J Z.:.* 8.r k l j e q e d q k H H J z k j z J z r j 6 0 r r : $ $ @ $ 2 2 2 % 2 % % 5 4 k e.UXUXUXUXUXUXUXUXUXUXUXUXUXUXUX",
"UXUXUXUXUXUXUXUXUXUXUXUXUX X-.Q X.O.^ H j./ * :.w k j k e e q q q e L P / ) J J P ) z z ) ) z z f 3 1 & : 4 6 4 2 5 2 5 9 5 9 5 l q.OXUXUXUXUXUXUXUXUXUXUXUXUXUX",
"UXUXUXUXUXUXUXUXUXUXUXUX}.&.; J X.O./ = 6 * : t r K j j l l l l l d d / / =./ ) ) / J J W H H H z e q r 0 0 0 4 4 4 4 9 9 9 9 9 5 d 9..XUXUXUXUXUXUXUXUXUXUXUXUX",
"UXUXUXUXUXUXUXUXUXUXUX X&.; X J } } ) $ $ $ q / d f k A l A A l Q F h K :.%.:./ [ } / / ^ f W W J l j H z H 0 j 0 0 0 B 9 9 9 9 9 @ & &.OXUXUXUXUXUXUXUXUXUXUXUX",
"UXUXUXUXUXUXUXUXUXUX X&.Q A @ J } =.P * & & e %.d l J Q D A D D Q D D Q :.:.:.} :.8./ } } D ) / Q F / J J J J G G G W V V B 9 9 1 o X $ 9.OXUXUXUXUXUXUXUXUXUXUX",
"UXUXUXUXUXUXUXUXUX.X&.: $ q @ L / / P 1 1 e e D A K Q Q D Q Q U ~ U U ~ 4.4.4.1.:.4.:.` ` X.8.X.} ^ ^ ^ / W W W W W C G V B V 9 @ o X X ; q.UXUXUXUXUXUXUXUXUXUX",
"UXUXUXUXUXUXUXUX1Xq.g e e @ @ L / / %.3 e d d F Q ^ ! U U ` ~ ` [ _ T ] 5.8.5.3.4.f.1.' :.8.8.8.R ^ ^ ^ } / [ } } W W R V C 8 @ @ o o X X a r.UXUXUXUXUXUXUXUXUX",
"UXUXUXUXUXUXUXUXr.a D y.<.: & %.7.8.>.7 d h F ^ ^ [ R E T ' ] _  .o._ ..l.5.5.l.5.l.3.<.8.p.3.o._ o.' ' { { { 4.} [ O.R R V 3 7 7 5 1 @ 5 5 c H.UXUXUXUXUXUXUXUX",
"UXUXUXUXUXUXUX[.+.O e Q K 1 & d l k Z h Z U [ [ { _ E _ _  .|  .,. . .y.l.m.m.b.m.b.k.a.j.k.s. . . .X.X.2.X.1.4.4...{ ` Y 8 B I V 7 7 7 3 @ X $..XUXUXUXUXUXUXUX",
"UXUXUXUXUXUXOX-.l e @ O @ $ 1 1 7 7 Z Z S R { ..4...| y.,. .u.,.a.a.m.c.l.F.F.F.F.F.b.z.b.n.m.z.a.s.i.3.p.X.4.p.3.2.1...S B 8 8 3 1 & @ o o X $ q.UXUXUXUXUXUXUX",
"UXUXUXUXUXUXe.x e l l y t x c F d Z S I E ` ....g.x.x.n.x.y.a.h.z.L.U.G.F.U.J.!.U.U.G.L.P.P.n.L.P.n.x.a.s.s.f.f.s.3.p...I S Z 7 3 1 3 5 & @ @ @ x H.UXUXUXUXUXUX",
"UXUXUXUXUX}.#.q q l c L P #.%.>./ Z S T _ ] 2...N.c.c.n.c.g.z.v.v.I.!.~.U.(.K.*X).(.~.I.!.!.I.!.!.P.v.b.m.m.g.g.g.f.s.3.T U Z h 7 3 E C C C V C 3 $.OXUXUXUXUXUX",
"UXUXUXUXUXq.y : y p c y & 1 e h Z U [ 3.| 2.j.j.M.N.Z.B.T.E.Q.W./.'.).6X6XtX=XsXsX9X0X2X7X8X4X).].E.E.E.J.T.B.N.N.M.l.f.| T U S d 7 _ C C C V C 1 y r.UXUXUXUXUX",
"UXUXUXUX}.m : : y a M v t e d h D D 5.n.k.j.A.A.A.|.$X$X#X&X=X-XeXtXtXuXaXcXkXlXlXhXcXfXfXuXuXtX9X=X-X&X&X@X@X$X|.A.l.l.<.{ ` R Z d B 8 9 9 3 7 @ X $. XUXUXUXUX",
"UXUXUXUXq.; ; y a a M M M g d h D T f.c.l.j.A.A.oX#X#X&X;X:X,X,XtXiXuXbXbXnXlXVXVXmXnXbXfXfXsXuXuXtXeX,X&X&X&X#X$XA.N.s.3...' R U h Z C 9 5 V V & X q r.UXUXUXUX",
"UXUXUX}.m O $ : a a M M M #.A S S T s.k.x.N.|.oX$X#X#X;X;X,X<XyXiXaXfXcXmXNXzXCXSXNXNXnXvXbXfXpXaXtXtXeX,X;X&X#X#X$Xl.a.g.g...` R Y h 7 1 1 2 & @ o @ &.OXUXUXUX",
"UXUXUXr.: O O ; a M b M #.@.@.Q T ` ]  .i.N.$X#X#X;X;X;X,XyXyXaXpXbXcXnXmXBXVXFXDXZXAXAXMXvXvXbXfXiXiXyX,X>X;X&X#X@Xc.a.c.g.' E ! Y G e 7 h 3 3 1 & o a H.UXUXUX",
"UXUXOX$.$ O O ; > a M M #.#.%.%.:.1.2.i.d.B.$X#X;X;X;X<X<XyXyXaXhXcXmXNXZXSXSXDXFXSXZXZXMXMXMXvXbXpXaXyXeX>X>X:X;X@Xn.g.c.x.| I U Y J Z h d 7 3 1 1 = q q.UXUXUX",
"UXUX{.c o O O ; : > M M #.$.%.[ [ ..<.s.x.T.#X&X;X;X<X<XyXgXjXjXmXVXAXZXFXFXFXJXJXFXJXFXSXZXMXMXmXcXhXgXyXrX>X>X=X&XF.x.n.x. .E I D U F Z G 9 d 3 5 & & +.XXUXUX",
"UXUXq.> O ; ; ; : : q c $.%.%.%.{ 1.,.i.x.Q.&X=X:X>X<XrXkXjXjXhXcXNXNXBXZXDXSXJXSXZXSXZXAXZXMXmXmXmXjXjXyXyXrXtX,X%XP.z.z.a. ._ U S Z Z h d 3 1 1 & @ # y H.UXUX",
"UXOX&.; ; > y m q q q d #.%.%.6.:.<.i.d.m.E.&X:X,XyXyXgXjXzXjXhXjXVXmXNXmXNXBXBXmXNXBXBXBXVXmXcXjXjXzXjXhXaXiXtXtX-XR.v.g.y. .o.` Y D Z d e q 1 & & & & : q.UXUX",
"UX.Xc ; ; ; ; y q q t l A / ~ ] ]  .a.z.v.E.=X,XyXyXgXgXzXzX#X%X%X%X%X%X%X=X=X9X9X-X*X*X*X%X%X%X%X;XzXVXjXhXpXuXtX-XU.v.g.y. .| _ U D A h d 3 e & = 3 2 q &.OXUX",
"UXD.p y m m a a c m c +.+.%.%._ o. .b.P.P.E.9XtXyXiXhXcXzXzX$XZ.W.W.W._.].].`.5X6X).).`.`._.W.W.W.-XCXNXcXbXbXfXuXtX^.v.z.a. .o._ U U Z Z e e e 3 7 e 4 w +. XUX",
"UXq.a a m m s a c m +.+.*.%.w.:.o. .z.P.L./.,XtXiXbXbXjXxXxX%XW.W.].].'.'.'.wX7X8X2X8X8X2X8X`.W.W.,XCXSXMXnXbXfXsXuX^.L.v.a.,. .] ] U D D q & q 8 9 f w , c H.UX",
"UXt.a m m a a m M c +.+.%.>.>.5.i.s.x.n.G.'.tXiXaXhXcXmXHXCX%XW.].].6X'.wX5X6X7X7X7X3X3X7X7X`.(.^.-XHXFXNXMXvXbXsXuX~.I.G.v.a. ._ T U Z Z e e f h l r w ; : e.UX",
"OX$.; ; ; ; > q e #.$.K D / 5.5.f.g.c.F.!.).uXuXbXcXmXNXJXHX-X_.'.6XqXwXqXqX).+X+X3X7X3X7X7X4X`._.,XLXJXZXMXMXvXbXuX8XI.!.P.y._ _ I D Z d l A G k f w = > y q.UX",
".X#.: y a a a M m t.0.$.%.6.[ 3.f.x.c.F.U.'.uXfXbXmXmXBXKXHX%X].6X'.6XwX/.e.6.<.6.>.K.5XdXdX7X`._.,XLXKXZXAXMXMXvXfX8XI.U.P.a. .| ` T F D D A k z r ; , b u 9.UX",
"}.m > y a a a M p c #.*.%.[ ` | ..y.z.v.I.5XaXfXbXMXAXSXKXHX-X'.].).5XK.>.u.z.n.v.a.6.H.dXdX7X2X^.>XIXKXFXZXAXMXvXfX2X~.P.n.d.p...| ' ! K F A z r $ s ; b b &.+X",
"}.m a a M M M M M #.#.%.[ :.6.<.p.g.z.P.I.6XfXbXNXAXZXCXLXLX%X].'.6X0X9.a.P.U.Y.Y.P.h.6.+XdX7X8X`.eXIXLXFXFXZXNXMXfX2X~.G.n.g.s.p...{ ` ! K H z w ; O O , > $.OX",
"}.m a m M M @.M @.$.@.%.%.6.<.s.d.c.P.U.(.0XvXmXNXVXSXFXLXLX%X].'.5XK.6.C.!.Y.I.I.Y.Y.a.0.qX7X5X).=XIXLXJXDXSXNXMXnXuX8X!.G.n.k.3...[ ! J K k t v s $ O O   m XX",
"}.m m m M M M @.@.$.&.:.:.6.4.5.f.l.n.F.R.>XkXzXVXCXFXJXLXHX*X].5XqXH.S.Y.Y.Y.Y.Y.Y.C.h.q.0X7X7X`.9XIXLXJXDXDXCXVXkXeXJ.F.b.d.3.2.] ! W K H z x u i s s s b $..X",
"{.m a m M M v M P #./ %.{ ..2.3.k.b.G.!.wXgXlXlXCXCXDXJXLXKX/.].7X7X[.u.C.Y.Y.Y.Y.Y.C.h.9.0X7X7X8X9XUXLXJXJXPXVXlXlXgX*X(.G.F.m.s.<.' ! Q K v z v b b b b b $. X",
"}.a O O ; : v $.$.k @./ / [ :.4.5.l.b.J./.eXkXlXxXCXSXDXLXLX*X].5X7XK.<.h.C.Y.Y.I.].T.S.r.0XqX7X8X9XUXLXJXDXCXGXlXlX>X/.J.G.m.5.4.[ ^ P P P n v b b b b b b $. X",
"}.m > a : & q t L =.=.:.6.1.3.s.l.b.F.G.(.9XhXmXmXVXCXSXLXLX*X'.6X7X3Xq.S.C.Q.%XE.T.h.,.K.qX7X7X2X9XIXLXJXDXZXNXNXcXwX^.U.F.v.a.i...} ^ / P L n M b b b b b &..X",
"}.+.m &.c c x t @.=.%.%.[ :.1.5.f.f.M.G.!.0XpXvXnXAXAXSXKXLX*X'.8X2XqX+X5.S.c.T.Z.h.<.J.3X3X7X5X).>XIXKXDXSXZXAXNXbX2X!.v.z.<.6.` U Q P z v n r s , , , < a &.OX",
" X$.c $.#.p p ;.@.P %.Q Q ~ ] |  .a.v.U.!.).uXfXbXmXAXBXHXHX%X].).4XqX0X).e.3.y.a.l.K.0X3X2X4X4X`.>XLXKXSXZXAXnXfXfX8XI.G.n.l.p.X.O.^ / ( ;.;.i s s , s , b -.UX",
"1X&.p m a y #.;.@.%.P Z Z U E _ o. .b.U.I.).uXsXbXcXmXBXJXHX%XW.^.).3X0X5X5X*X/.+X0XqX7X3X3X8X`._.,XLXJXZXAXMXvXfXuX(.I.G.b.f.4.8.X./ G d n ;.i ; $ + + + < q.UX",
"UX9.y < u M @.@.%.v d l D D E `  . .b.P.U.].9XaXbXbXmXmXCXHX@XW._.(.5X7X2X5X).6X7X7X5X5X2X2X)._.W.:XKXJXNXMXvXbXfXuX(.I.P.x.f.2.4.:.=.P P v s b b , b b N N e.UX",
"UXe.#.@.@.@.@.#.c q q K Q U ` '  .S.s.x.v.].9XyXiXhXhXjXCXxX@XY.W.W.'.).4X6X'.).4X4X'.`.).).`.W.W.:XHXCXnXvXbXfXsXuX^.L.C.c.u.o.' X.=.) v n s b b b , N N ;.H.UX",
"UXH.+.$.@.@.@.v x e l l D U ~ ] ]  .u.h.v.E.=XtXyXaXhXjXzXxX@XQ.R.R._._._.`.W.(.`.).].^.(.W.W.W.W.;XCXVXcXcXpXaXiX>XU.F.P.v.,._ E Q %.P P n v b s s b N N @.}.UX",
"UX X%.@.#.@.p > x g l l D D ~ ~ | ,.u.g.z.E.;X>XtXyXgXgXzXzX;X#X;X:X>X>X=X&X&X%X*X*X&X:X>X:X=X:X-X<XVXzXjXhXsXyXtX=X^.v.m.d.,.' [ Q / k g y : > < + < , , $.OXUX",
"UXOX&.m v p t t t e g l D D T ~ ' | u.a.z.T.&X:X>XyXrXgXjXzXzXxXVXCXPXHXPXPXGXGXPXPXHXHXPXDXCXCXzXVXzXzXgXaXyXyXeX=XR.n.d.<. .] [ ^ / #.e & $ $ < b - < < q.UXUX",
"UXUXq.x y y t t g d d Z D U D T _ ' y.g.z.J.&X&X:X<XrXrXjXjXVXVXVXBXDXJXKXKXHXKXHXKXKXJXJXDXDXBXNXVXmXjXyXyXyX>X:X&XR.m.a.3...{ ^ / @.( #.w & $ + < + . a H.UXUX",
"UXUXH.+.p u x g k h l A D D D D E _ d.c.c.B.$X;X;X:X<X<XgXhXhXnXMXBXZXFXDXJXKXKXLXKXJXJXFXSXZXMXmXcXhXhXyX<X>X>X;X%XJ.m.s.2...:.[ =.P #.M v > o + X   X m .XUXUX",
"UXUX.X&.x x t t r d d d l D Q T I T y.x.x.B.$X#X;X;X>X<XyXaXhXbXnXMXAXZXDXDXDXJXJXJXJXFXZXZXMXMXvXhXaXiXyX>X:X;X&X#XG.m.s.4.:.:.:.%.#.P n n v > + X   O q.UXUXUX",
"UXUXUXe.t O * t e d d h e A D ~ _ T s.g.g.N.|.#X#X#X:X,XyXyXaXfXvXnXMXAXSXDXCXCXDXFXFXFXAXMXnXvXbXpXiXyXtX>X:X&X#X$XB.d.j.5.5.>.%.P @.n M n s z # X   y H.UXUXUX",
"UXUXUX}.m = w $ 1 1 3 3 e d D Y ` o.y.g.f.j.|.oX#X;X;X>XtXtXtXpXbXbXvXMXNXSXlXlXCXZXFXAXAXnXvXbXaXuXtXtX,X:X1X&X#X|.N.f.f.5.5.8.7.P v M v v v s s + X $..XUXUXUX",
"UXUXUXUX9.q o O B C 8 7 S S h D R ` ' | 2.M.|.oX@X#X&X&X,XeXtXiXaXfXfXnXnXVXzXlXlXmXZXMXMXbXfXfXaXtXtX,X:X=X&XXXXX|.l.5.3.8.:.>.7.=.v v v s v z u y y r.UXUXUXUX",
"UXUXUXUX{.c X o & & & 1 3 3 3 h U R _ | 1.M.V.|.|.@XXX%X%X-X=X9XtXuXuXfXfXNXkXkXlXcXMXbXfXuXuXtXtX9X-X=X&X@X@X$X|.A.V.l.5.5.:.-.-.-.=.x u v u t t e $.XXUXUXUXUX",
"UXUXUXUXUX-.; @ V 8 V C V I e d h I _ o.p.f.j.j.c.N.T.R.E.E.^.^.(.^.(.8X).uX1XgXsXuXdX0X7X8X(.(.^.^.R.G.B.n.c.N.l.M.b.l.5.5.7.7.-.=.;.;.u u x u r g r.UXUXUXUXUX",
"UXUXUXUXUX{.M 2 C C C C C _ 7 3 d Z S T  .i. .u.,.u.a.m.n.F.G.v.L.L.I.I.L.(.J.=XK.+X8X~.~.!.L.L.v.v.v.z.z.a.a.,.<.5.V.l.5.7.8.%.=.;.@.=.#.w w r r &..XUXUXUXUXUX",
"UXUXUXUXUXUXq.g B 7 B B B V 3 3 e h S I |  .X. .a. .,.d.k.m.b.F.P.v.G.F.F.U.G.(.J.!.U.!.G.U.P.v.z.z.a.a.c.c.x.c.3.1.5.] J D / =.@.=.#.#./ L q & c H.UXUXUXUXUXUX",
"UXUXUXUXUXUX.X@.@ X o o o $ & 1 3 h 8 I o.| | | p.| | 3.s.f.s.n.F.k.b.N.m.n.F.G.F.G.b.G.b.F.P.d.a.3.<.<.d.c.x.l.3.%.:.Y S h 8 L =.#.P P L K j y 9.UXUXUXUXUXUXUX",
"UXUXUXUXUXUXUXH.x X X @ @ & 1 3 B 7 7 G R o._ ' | o.o...2.2.3.y.i.2.f.f.d.m.m.F.m.b.j.c.l.5.a.3. .| ] ..<.2.1.4.:.%.%.U 8 8 7 r k #.P L c G h %. XUXUXUXUXUXUXUX",
"UXUXUXUXUXUXUXUXq.y 5 7 7 7 8 C B 7 7 C R R R ! ' ~ T [ ......o._ o.4.4.3.6.l.5.5.l.5.f.4.o.o.' _ ' T ` I S S W / %.P h 7 1 l %.& t L k j 9 K H.UXUXUXUXUXUXUXUX",
"UXUXUXUXUXUXUXUXOX-.g o o o $ & & 1 V V C W Y R ^ I F ` } { { E I ` :.4.X.{ 3.3.:.f.1.4.X.E E _ Y ` Y W V Z F / P P k 3 1 1 q %.w O e j 9 k e.UXUXUXUXUXUXUXUXUX",
"UXUXUXUXUXUXUXUXUX X$.O X X o O & B B S G V C W G f G Y R R ^ D Y } X.} ^ } X.{ [ X.} X.} I S T D Y D Q B K P #.P t r k e $ 1 L = X X = l 9.OXUXUXUXUXUXUXUXUXUX",
"UXUXUXUXUXUXUXUXUXUX}.#.O   X @ 9 8 8 B B G G h 7 j G D J Y Y G W ^ ^ Q R W O.^ / } ^ } ^ S Z F l A j L H #.P v z r $.l.>.$ $ c O X   O 9.OXUXUXUXUXUXUXUXUXUXUX",
"UXUXUXUXUXUXUXUXUXUXUX[.#.X o 9 9 9 B 9 B 8 9 1 9 f j j j G G f G J G h W Y ^ Y J O.W W ^ h e k f z r v v v n y x M M >.$.o o x O   o &. XUXUXUXUXUXUXUXUXUXUXUX",
"UXUXUXUXUXUXUXUXUXUXUXUX[.#.e 9 9 9 9 9 9 5 # 2 4 4 f r f f 3 e f f d e J H Y J H R J J J 9 3 k f t w u u v x = p M M 9.%.O X d O ; &..XUXUXUXUXUXUXUXUXUXUXUXUX",
"UXUXUXUXUXUXUXUXUXUXUXUXUX[.&.r 5 5 9 5 % # % 2 4 2 4 4 4 & $ 1 3 r e f V 0 G H 0 J H H H z & w w i > s s s v M = = P >.%.X   O t 9..XUXUXUXUXUXUXUXUXUXUXUXUXUX",
"UXUXUXUXUXUXUXUXUXUXUXUXUXUX X-.7 5 6 % X % % - % 2 2 2 $ $ $ & 2 w 2 W W 0 B 0 0 j z z z H i # O i < u i v s u t +.x 6.K     a q.OXUXUXUXUXUXUXUXUXUXUXUXUXUXUX",
"UXUXUXUXUXUXUXUXUXUXUXUXUXUXUXOXw.L # X # % % % % % = o O o O = & * * 4 9 4 0 r 0 9 4 z n n ( i O s ; i u s s y x #.K 3.Q O m r.UXUXUXUXUXUXUXUXUXUXUXUXUXUXUXUX",
"UXUXUXUXUXUXUXUXUXUXUXUXUXUXUXUXUXH.$.> # # # # % # O   O o o $ % @ # @ 2 3 9 w 4 0 0 > n n n ( u u ; i u v u i : y + & x &.[.UXUXUXUXUXUXUXUXUXUXUXUXUXUXUXUXUX",
"UXUXUXUXUXUXUXUXUXUXUXUXUXUXUXUXUXUX.Xw.v - + # # X   X   = = + # # # o 2 2 6 w 6 i i X , n ( ( ( s + u u v u u   . O M r.OXUXUXUXUXUXUXUXUXUXUXUXUXUXUXUXUXUXUX",
"UXUXUXUXUXUXUXUXUXUXUXUXUXUXUXUXUXUXUXUXH.-.x -   . .     + X # # # #   = = 5 6 i 2 + - i - ( ) ) ) s u z n r ; : c q. XUXUXUXUXUXUXUXUXUXUXUXUXUXUXUXUXUXUXUXUX",
"UXUXUXUXUXUXUXUXUXUXUXUXUXUXUXUXUXUXUXUXUXUXH.9.p + . . . +   - 6 # # + @ % 6 4 i - . + i - - ) =.=.) z z L t c q.[.UXUXUXUXUXUXUXUXUXUXUXUXUXUXUXUXUXUXUXUXUXUX",
"UXUXUXUXUXUXUXUXUXUXUXUXUXUXUXUXUXUXUXUXUXUXUXUX[.q.#.>   X   # 6 6 %   # - 6 6 z - . n ( ) # n 8.X./ z P &.e. XUXUXUXUXUXUXUXUXUXUXUXUXUXUXUXUXUXUXUXUXUXUXUXUX",
"UXUXUXUXUXUXUXUXUXUXUXUXUXUXUXUXUXUXUXUXUXUXUXUXUXUX.XH.q.#.u 2 * 6 #   # - i z z - . i ( P 6 n ) 8.>.w.H.OXUXUXUXUXUXUXUXUXUXUXUXUXUXUXUXUXUXUXUXUXUXUXUXUXUXUX",
"UXUXUXUXUXUXUXUXUXUXUXUXUXUXUXUXUXUXUXUXUXUXUXUXUXUXUXUXUX.X[.r.q.&.@.c x x v L L x , v #.%.9.w.A.}.OXUXUXUXUXUXUXUXUXUXUXUXUXUXUXUXUXUXUXUXUXUXUXUXUXUXUXUXUXUX",
"UXUXUXUXUXUXUXUXUXUXUXUXUXUXUXUXUXUXUXUXUXUXUXUXUXUXUXUXUXUXUXUXUX1X.X X}.[.H.H.H.H.}.[.}..X1XUXUXUXUXUXUXUXUXUXUXUXUXUXUXUXUXUXUXUXUXUXUXUXUXUXUXUXUXUXUXUXUXUX"
};
